<svg width="48" height="48" viewBox="0 0 48 48" fill="none" xmlns="http://www.w3.org/2000/svg">
<path d="M23.7328 10.7244L28.6383 4.67215C34.7844 5.01016 40.5084 6.48822 45.7211 8.90232L45.4297 8.78032C43.7886 10.9364 41.6243 12.6105 39.127 13.6205L39.0259 13.6565C38.7365 10.7784 36.7387 10.0764 30.3963 10.0764L23.7348 48.002L17.0337 10.0684C10.7309 10.0684 8.73307 10.7764 8.44172 13.6525C5.8453 12.6145 3.68294 10.9484 2.06761 8.83432L2.04185 8.80032C6.95918 6.50422 12.6832 5.02216 18.7085 4.68615L18.8294 4.68015L23.7348 10.7244H23.7328ZM23.7328 2.92407C23.9449 2.92007 24.1946 2.92007 24.4444 2.92007C32.3069 2.92007 39.7811 4.60014 46.5317 7.62427L46.1849 7.48626C46.6546 6.69823 47.1025 5.78019 47.4732 4.82415L47.5168 4.69815C40.4787 1.77203 32.3129 0.0519552 23.7526 0.00195312H23.7328C15.1547 0.0499551 6.98693 1.77003 -0.483215 4.85816L-0.05114 4.70015C0.392827 5.81019 0.838777 6.73023 1.3422 7.61627L1.28076 7.50027C7.69847 4.60414 15.1884 2.91807 23.0708 2.91807C23.3047 2.91807 23.5366 2.92007 23.7685 2.92207H23.7328V2.92407Z" fill="black"/>
</svg>
